<mxfile host="app.diagrams.net" modified="2023-09-29T15:48:55.325Z" agent="Mozilla/5.0 (Windows NT 10.0; Win64; x64) AppleWebKit/537.36 (KHTML, like Gecko) Chrome/117.0.0.0 Safari/537.36" version="22.0.0" etag="ZyKdzcCxBNsrmMUPuM-G" type="github">
  <diagram name="PÃ¡gina-1" id="dz1ibk3tAWbizJDqcWLW">
    <mxGraphModel>
      <root>
        <mxCell id="0" />
        <mxCell id="1" parent="0" />
      </root>
    </mxGraphModel>
  </diagram>
</mxfile>
